<?xml version="1.0" standalone="no"?><!DOCTYPE svg PUBLIC "-//W3C//DTD SVG 1.1//EN" "http://www.w3.org/Graphics/SVG/1.1/DTD/svg11.dtd"><svg t="1608109792558" class="icon" viewBox="0 0 1024 1024" version="1.1" xmlns="http://www.w3.org/2000/svg" p-id="3166" width="128" height="128" xmlns:xlink="http://www.w3.org/1999/xlink"><defs><style type="text/css"></style></defs><path d="M826.547856 388.599575h-29.288257v-103.168029a285.316915 285.316915 0 1 0-570.633829 0v103.168029h-29.230942A114.28725 114.28725 0 0 0 83.279525 502.714877v406.940558a114.28725 114.28725 0 0 0 114.115303 114.115303h629.153028a114.28725 114.28725 0 0 0 114.115303-114.115303v-406.940558a114.28725 114.28725 0 0 0-114.115303-114.115302zM306.810254 285.316915a205.075115 205.075115 0 1 1 410.15023 0v103.168028H306.810254z m553.553789 624.739729a33.930818 33.930818 0 0 1-33.873502 33.873503H197.394828a33.930818 33.930818 0 0 1-33.873503-34.102765v-406.940558a33.930818 33.930818 0 0 1 33.873503-33.873503h629.153028a33.930818 33.930818 0 0 1 33.873503 33.873503z" fill="#467CFD" p-id="3167"></path><path d="M512 553.66842a107.180119 107.180119 0 0 0-22.295757 212.067615v58.060674a22.467704 22.467704 0 1 0 44.935408 0v-56.16926-1.891414a107.180119 107.180119 0 0 0-22.295758-212.067615z m0 168.507781a61.327661 61.327661 0 1 1 61.327661-61.327662A61.384977 61.384977 0 0 1 512 722.176201z" fill="#8BAEF7" p-id="3168"></path></svg>